C:\Users\israe\Dropbox\PhDWork\ExperimentalData\subject2\055\P2S055W02_filtered35.mot
nRows=18
nColumns=28

name C:\Users\israe\Dropbox\PhDWork\ExperimentalData\subject2\055\P2S055W02_filtered35.mot
datacolumns 28
datarows 18
range 1.7800000000 1.7970000000
endheader
time	ground_force_1_vx	ground_force_1_vy	ground_force_1_vz	ground_force_1_px	ground_force_1_py	ground_force_1_pz	ground_moment_1_mx	ground_moment_1_my	ground_moment_1_mz	ground_force_2_vx	ground_force_2_vy	ground_force_2_vz	ground_force_2_px	ground_force_2_py	ground_force_2_pz	ground_moment_2_mx	ground_moment_2_my	ground_moment_2_mz	ground_force_3_vx	ground_force_3_vy	ground_force_3_vz	ground_force_3_px	ground_force_3_py	ground_force_3_pz	ground_moment_3_mx	ground_moment_3_my	ground_moment_3_mz
        1.7800000000	       -0.0000000000	        0.0000000000	        0.0000000000	        0.1988394961	        0.0000558755	       -0.3004071324	       -0.0000000000	        0.0000000000	        0.0000000000	       -8.6606518793	      623.6105360039	      115.8153071474	        0.2029003516	       -0.0000795827	        0.4543649445	       61.5364663762	        1.4188096568	       -4.4334588865	       -0.0000000151	        0.0000000407	        0.0000000043	        0.2076431971	        0.0000770316	        1.3583900146	        0.0000000103	        0.0000000047	       -0.0000000012	
        1.7810000000	       -0.0000000000	        0.0000000000	        0.0000000000	        0.1988394961	        0.0000558755	       -0.3004071324	       -0.0000000000	        0.0000000000	        0.0000000000	       -8.4006742047	      622.3619007603	      116.2274050165	        0.2029003516	       -0.0000795827	        0.4543649445	       61.3095709234	        1.4190031336	       -4.4914221975	       -0.0000000209	        0.0000000574	        0.0000000063	        0.2076431971	        0.0000770316	        1.3583900146	        0.0000000145	        0.0000000065	       -0.0000000018	
        1.7820000000	       -0.0000000000	        0.0000000000	        0.0000000000	        0.1988394961	        0.0000558755	       -0.3004071324	       -0.0000000000	        0.0000000000	        0.0000000000	       -8.1445710330	      621.0058903697	      116.6217662920	        0.2029003516	       -0.0000795827	        0.4543649445	       61.0782794397	        1.4224961560	       -4.5462785466	       -0.0000000275	        0.0000000768	        0.0000000085	        0.2076431971	        0.0000770316	        1.3583900146	        0.0000000194	        0.0000000085	       -0.0000000026	
        1.7830000000	       -0.0000000000	        0.0000000000	        0.0000000000	        0.1988394961	        0.0000558755	       -0.3004071324	       -0.0000000000	        0.0000000000	        0.0000000000	       -7.8913856235	      619.5394914794	      117.0004957185	        0.2029003516	       -0.0000795827	        0.4543649445	       60.8417700361	        1.4292703462	       -4.5983091147	       -0.0000000346	        0.0000000982	        0.0000000111	        0.2076431971	        0.0000770316	        1.3583900146	        0.0000000249	        0.0000000108	       -0.0000000034	
        1.7840000000	       -0.0000000000	        0.0000000000	        0.0000000000	        0.1988394961	        0.0000558755	       -0.3004071324	       -0.0000000000	        0.0000000000	        0.0000000000	       -7.6402364467	      617.9590219988	      117.3647525268	        0.2029003516	       -0.0000795827	        0.4543649445	       60.5988181588	        1.4393856414	       -4.6476386798	       -0.0000000419	        0.0000001206	        0.0000000139	        0.2076431971	        0.0000770316	        1.3583900146	        0.0000000306	        0.0000000131	       -0.0000000043	
        1.7850000000	       -0.0000000000	        0.0000000000	        0.0000000000	        0.1988394961	        0.0000558755	       -0.3004071324	       -0.0000000000	        0.0000000000	        0.0000000000	       -7.3907094564	      616.2637640606	      117.7147578995	        0.2029003516	       -0.0000795827	        0.4543649445	       60.3478111197	        1.4529252143	       -4.6943869133	       -0.0000000489	        0.0000001426	        0.0000000167	        0.2076431971	        0.0000770316	        1.3583900146	        0.0000000362	        0.0000000152	       -0.0000000053	
        1.7860000000	       -0.0000000000	        0.0000000000	        0.0000000000	        0.1988394961	        0.0000558755	       -0.3004071324	       -0.0000000000	        0.0000000000	        0.0000000000	       -7.1433583322	      614.4570460550	      118.0503387431	        0.2029003516	       -0.0000795827	        0.4543649445	       60.0871681404	        1.4698609901	       -4.7387988561	       -0.0000000545	        0.0000001618	        0.0000000192	        0.2076431971	        0.0000770316	        1.3583900146	        0.0000000411	        0.0000000170	       -0.0000000063	
        1.7870000000	       -0.0000000000	        0.0000000000	        0.0000000000	        0.1988394961	        0.0000558755	       -0.3004071324	       -0.0000000000	        0.0000000000	        0.0000000000	       -6.8996435253	      612.5434942596	      118.3711069206	        0.2029003516	       -0.0000795827	        0.4543649445	       59.8157606697	        1.4900208880	       -4.7810449762	       -0.0000000579	        0.0000001751	        0.0000000212	        0.2076431971	        0.0000770316	        1.3583900146	        0.0000000445	        0.0000000181	       -0.0000000071	
        1.7880000000	       -0.0000000000	        0.0000000000	        0.0000000000	        0.1988394961	        0.0000558755	       -0.3004071324	       -0.0000000000	        0.0000000000	        0.0000000000	       -6.6616332122	      610.5265416984	      118.6763379867	        0.2029003516	       -0.0000795827	        0.4543649445	       59.5328604122	        1.5131234867	       -4.8210961704	       -0.0000000575	        0.0000001785	        0.0000000222	        0.2076431971	        0.0000770316	        1.3583900146	        0.0000000454	        0.0000000180	       -0.0000000076	
        1.7890000000	       -0.0000000000	        0.0000000000	        0.0000000000	        0.1988394961	        0.0000558755	       -0.3004071324	       -0.0000000000	        0.0000000000	        0.0000000000	       -6.4320027102	      608.4084801408	      118.9653209663	        0.2029003516	       -0.0000795827	        0.4543649445	       59.2379395755	        1.5388208000	       -4.8589173324	       -0.0000000515	        0.0000001672	        0.0000000216	        0.2076431971	        0.0000770316	        1.3583900146	        0.0000000426	        0.0000000162	       -0.0000000077	
        1.7900000000	       -0.0000000000	        0.0000000000	        0.0000000000	        0.1988394961	        0.0000558755	       -0.3004071324	       -0.0000000000	        0.0000000000	        0.0000000000	       -6.2135507011	      606.1908583017	      119.2376999521	        0.2029003516	       -0.0000795827	        0.4543649445	       58.9306169477	        1.5667579944	       -4.8946357559	       -0.0000000380	        0.0000001350	        0.0000000188	        0.2076431971	        0.0000770316	        1.3583900146	        0.0000000345	        0.0000000120	       -0.0000000071	
        1.7910000000	       -0.0000000000	        0.0000000000	        0.0000000000	        0.1988394961	        0.0000558755	       -0.3004071324	       -0.0000000000	        0.0000000000	        0.0000000000	       -6.0078037330	      603.8740590858	      119.4930737711	        0.2029003516	       -0.0000795827	        0.4543649445	       58.6105626973	        1.5965440321	       -4.9285042639	       -0.0000000146	        0.0000000750	        0.0000000128	        0.2076431971	        0.0000770316	        1.3583900146	        0.0000000194	        0.0000000047	       -0.0000000056	
        1.7920000000	       -0.0000000000	        0.0000000000	        0.0000000000	        0.1988394961	        0.0000558755	       -0.3004071324	       -0.0000000000	        0.0000000000	        0.0000000000	       -5.8141039625	      601.4571994060	      119.7306948004	        0.2029003516	       -0.0000795827	        0.4543649445	       58.2774589670	        1.6275479235	       -4.9609015248	        0.0000000212	        0.0000000000	        0.0000000029	        0.2076431971	        0.0000770316	        1.3583900146	       -0.0000000047	       -0.0000000064	       -0.0000000028	
        1.7930000000	       -0.0000000000	        0.0000000000	        0.0000000000	        0.1988394961	        0.0000558755	       -0.3004071324	        0.0000000000	        0.0000000000	       -0.0000000000	       -5.6300058025	      598.9384776930	      119.9495300791	        0.2029003516	       -0.0000795827	        0.4543649445	       57.9311138321	        1.6588062238	       -4.9923176379	        0.0000000721	        0.0000000000	       -0.0000000121	        0.2076431971	        0.0000770316	        1.3583900146	       -0.0000000397	       -0.0000000222	        0.0000000015	
        1.7940000000	        0.0000000000	        0.0000000000	        0.0000000000	        0.1988394961	        0.0000558755	       -0.3004071324	        0.0000000000	       -0.0000000000	       -0.0000000000	       -5.4523468150	      596.3159738618	      120.1480142129	        0.2029003516	       -0.0000795827	        0.4543649445	       57.5714912354	        1.6892540017	       -5.0231940094	        0.0000001403	        0.0000000000	       -0.0000000330	        0.2076431971	        0.0000770316	        1.3583900146	       -0.0000000876	       -0.0000000434	        0.0000000077	
        1.7950000000	        0.0000000000	        0.0000000000	        0.0000000000	        0.1988394961	        0.0000558755	       -0.3004071324	        0.0000000000	       -0.0000000000	       -0.0000000000	       -5.2783261329	      593.5877581977	      120.3241372960	        0.2029003516	       -0.0000795827	        0.4543649445	       57.1987685482	        1.7179948680	       -5.0538965355	        0.0000002280	        0.0000000000	       -0.0000000607	        0.2076431971	        0.0000770316	        1.3583900146	       -0.0000001502	       -0.0000000707	        0.0000000162	
        1.7960000000	        0.0000000000	        0.0000000000	       -0.0000000000	        0.1988394961	        0.0000558755	       -0.3004071324	        0.0000000000	       -0.0000000000	       -0.0000000000	       -5.1057059297	      590.7505527912	      120.4761601834	        0.2029003516	       -0.0000795827	        0.4543649445	       56.8136136983	        1.7444004241	       -5.0847821703	        0.0000003360	        0.0000000000	       -0.0000000960	        0.2076431971	        0.0000770316	        1.3583900146	       -0.0000002285	       -0.0000001043	        0.0000000271	
        1.7970000000	        0.0000000000	        0.0000000000	       -0.0000000000	        0.1988394961	        0.0000558755	       -0.3004071324	        0.0000000000	       -0.0000000000	       -0.0000000000	       -4.9319080464	      587.8010596520	      120.6026525800	        0.2029003516	       -0.0000795827	        0.4543649445	       56.4173305142	        1.7681109403	       -5.1160738491	        0.0000004642	        0.0000000000	       -0.0000001391	        0.2076431971	        0.0000770316	        1.3583900146	       -0.0000003227	       -0.0000001443	        0.0000000407	
